# xmcd CD database file
#
# Track frame offsets:
#	183
#	105303
#	136338
#
# Disc length: 2785 seconds
#
# Revision: 0
# Processed by: cddbd v1.4PL0 Copyright (c) Steve Scherf et al.
# Submitted via: CDex 1.50
#
DISCID=1c0adf03
DTITLE=Marilyn Crispell - Marilyn Crispell Quartet Live In Berlin
DYEAR=1982
DGENRE=Jazz
TTITLE0=ABC (For Anthony Braxton)
TTITLE1=Chant
TTITLE2=Burundi
EXTD=YEAR: 1982
EXTT0=
EXTT1=
EXTT2=
PLAYORDER=
